<svg
        viewBox="0 0 17 17" fill="none" xmlns="http://www.w3.org/2000/svg">
    <path d="M7.64604 16.64C7.96076 16.6327 8.26277 16.5143 8.49865 16.3057C8.73454 16.0971 8.8891 15.8117 8.935 15.5H6.30713C6.35433 15.8202 6.51612 16.1123 6.76241 16.322C7.0087 16.5317 7.32272 16.6447 7.64604 16.64Z"
          fill="#8E8E8E"/>
    <path d="M14.8953 13.415C14.4135 12.9851 13.9917 12.4924 13.6413 11.95C13.2587 11.2012 13.0294 10.3836 12.9668 9.54495V7.07495C12.9648 6.77493 12.9381 6.47558 12.8869 6.17995C12.4937 6.10128 12.1158 5.95945 11.7678 5.75995C11.9004 6.18738 11.9678 6.63239 11.9676 7.07995V9.54995C12.0289 10.573 12.3101 11.5707 12.792 12.475C13.1369 13.022 13.5462 13.5256 14.011 13.975H1.2164C1.68123 13.5256 2.09049 13.022 2.43541 12.475C2.91732 11.5707 3.1985 10.573 3.25974 9.54995V7.07495C3.25711 6.4963 3.36855 5.9228 3.58769 5.38731C3.80683 4.85182 4.12936 4.36485 4.53681 3.95428C4.94425 3.54372 5.42862 3.21762 5.96217 2.99466C6.49572 2.7717 7.06798 2.65626 7.64617 2.65495C8.49236 2.65563 9.31956 2.90608 10.0242 3.37495C9.94654 3.08945 9.90294 2.79573 9.89434 2.49995V2.18495C9.37269 1.92813 8.81228 1.7592 8.23569 1.68495V1.05495C8.23569 0.877919 8.16542 0.708138 8.04034 0.582957C7.91526 0.457777 7.74562 0.387451 7.56873 0.387451C7.39184 0.387451 7.2222 0.457777 7.09712 0.582957C6.97204 0.708138 6.90177 0.877919 6.90177 1.05495V1.70995C5.61068 1.89223 4.42907 2.53582 3.57509 3.52192C2.72111 4.50801 2.25242 5.77002 2.25555 7.07495V9.54495C2.19298 10.3836 1.96368 11.2012 1.5811 11.95C1.23682 12.4911 0.821819 12.9838 0.347108 13.415C0.293817 13.4618 0.251107 13.5195 0.221819 13.5841C0.19253 13.6488 0.177336 13.719 0.177246 13.79V14.47C0.177246 14.6026 0.229882 14.7297 0.323574 14.8235C0.417265 14.9173 0.544339 14.97 0.676839 14.97H14.5655C14.698 14.97 14.8251 14.9173 14.9188 14.8235C15.0125 14.7297 15.0651 14.6026 15.0651 14.47V13.79C15.065 13.719 15.0498 13.6488 15.0206 13.5841C14.9913 13.5195 14.9486 13.4618 14.8953 13.415Z"
          fill="#8E8E8E"/>
    <path d="M13.6413 5C15.0209 5 16.1393 3.88071 16.1393 2.5C16.1393 1.11929 15.0209 0 13.6413 0C12.2617 0 11.1433 1.11929 11.1433 2.5C11.1433 3.88071 12.2617 5 13.6413 5Z"
          fill="#FF5748"/>
</svg>
